<svg width="1024" height="1024" viewBox="0 0 1024 1024" fill="none" xmlns="http://www.w3.org/2000/svg">
<rect x="0.5" y="0.5" width="1023" height="1023" stroke="black"/>
<g filter="url(#filter0_d_1_5)">
<rect x="511.147" y="162.103" width="477.309" height="714.294" rx="40" transform="rotate(30 511.147 162.103)" fill="#FFCEED"/>
<rect x="511.147" y="162.103" width="477.309" height="714.294" rx="40" transform="rotate(30 511.147 162.103)" stroke="black" stroke-width="16"/>
</g>
<path d="M615.926 336.889L692.676 381.2L596.729 547.386L636.055 570.091L619.503 598.761L503.426 531.744L519.979 503.074L561.082 526.805L640.403 389.416L599.3 365.686L615.926 336.889ZM411.205 828.293C400.633 822.19 392.035 814.914 385.411 806.466C378.786 798.018 374.121 789.009 371.414 779.44C368.658 769.956 367.908 760.22 369.163 750.232C370.553 740.209 373.908 730.588 379.231 721.37L382.16 716.295C388.215 705.808 395.382 697.204 403.66 690.482C411.988 683.675 420.919 678.851 430.452 676.011C439.985 673.17 449.813 672.36 459.933 673.58C470.054 674.8 479.893 678.169 489.45 683.687C499.345 689.4 507.188 696.127 512.98 703.869C518.905 711.574 522.865 719.95 524.86 728.995C526.77 737.991 526.704 747.481 524.661 757.466C522.666 767.365 518.764 777.347 512.953 787.411L504.311 802.38L411.196 748.621L410.976 749.001C408.987 755.182 407.946 760.501 407.853 764.958C407.809 769.331 408.571 773.773 410.137 778.286C411.74 782.933 414.174 787.213 417.439 791.128C420.704 795.043 424.789 798.417 429.694 801.249C436.629 805.253 444.11 807.824 452.136 808.962C460.161 810.1 467.718 809.219 474.804 806.319L481.452 835.528C473.307 839.284 462.883 840.933 450.178 840.477C437.474 840.02 424.483 835.959 411.205 828.293ZM472.717 712.083C468.742 709.789 464.69 708.408 460.562 707.941C456.482 707.39 452.459 707.717 448.493 708.923C444.442 710.08 440.521 711.989 436.73 714.649C432.939 717.309 429.327 720.636 425.893 724.63L483.741 758.028L485.352 755.237C487.501 751.516 488.85 747.616 489.401 743.536C489.953 739.457 489.752 735.507 488.8 731.687C487.799 727.952 485.956 724.407 483.27 721.052C480.717 717.661 477.199 714.671 472.717 712.083Z" fill="black"/>
<g filter="url(#filter1_d_1_5)">
<rect x="452.301" width="508.253" height="760.602" rx="40" transform="rotate(30 452.301 0)" fill="#D4D5FF"/>
<rect x="452.301" width="508.253" height="760.602" rx="40" transform="rotate(30 452.301 0)" stroke="black" stroke-width="16"/>
</g>
<path d="M558.983 202.487L635.733 246.799L539.786 412.984L579.112 435.689L562.559 464.359L446.483 397.343L463.036 368.673L504.138 392.403L583.459 255.015L542.357 231.284L558.983 202.487ZM354.261 693.892C343.69 687.788 335.092 680.512 328.467 672.064C321.843 663.616 317.177 654.608 314.47 645.039C311.714 635.554 310.964 625.818 312.22 615.831C313.609 605.807 316.965 596.187 322.287 586.968L325.217 581.894C331.272 571.407 338.438 562.802 346.717 556.08C355.045 549.273 363.975 544.45 373.509 541.609C383.042 538.769 392.869 537.959 402.99 539.179C413.111 540.399 422.95 543.768 432.507 549.285C442.402 554.998 450.245 561.725 456.037 569.467C461.962 577.173 465.922 585.548 467.917 594.594C469.827 603.59 469.76 613.08 467.717 623.064C465.723 632.964 461.821 642.945 456.01 653.009L447.367 667.979L354.253 614.219L354.033 614.6C352.043 620.781 351.002 626.099 350.91 630.557C350.866 634.929 351.627 639.372 353.194 643.885C354.797 648.531 357.23 652.812 360.496 656.727C363.761 660.642 367.846 664.015 372.751 666.847C379.686 670.851 387.166 673.422 395.192 674.56C403.218 675.698 410.774 674.817 417.861 671.917L424.508 701.127C416.364 704.882 405.939 706.531 393.235 706.075C380.531 705.619 367.539 701.558 354.261 693.892ZM415.773 577.682C411.798 575.387 407.747 574.006 403.618 573.54C399.539 572.989 395.516 573.316 391.55 574.522C387.499 575.679 383.578 577.587 379.787 580.247C375.996 582.907 372.383 586.234 368.95 590.228L426.797 623.627L428.409 620.836C430.557 617.115 431.907 613.214 432.458 609.135C433.009 605.055 432.809 601.105 431.857 597.286C430.856 593.55 429.012 590.005 426.326 586.65C423.773 583.259 420.256 580.27 415.773 577.682Z" fill="black"/>
<defs>
<filter id="filter0_d_1_5" x="156.633" y="168.736" width="765.243" height="851.985" filterUnits="userSpaceOnUse" color-interpolation-filters="sRGB">
<feFlood flood-opacity="0" result="BackgroundImageFix"/>
<feColorMatrix in="SourceAlpha" type="matrix" values="0 0 0 0 0 0 0 0 0 0 0 0 0 0 0 0 0 0 127 0" result="hardAlpha"/>
<feOffset dy="4"/>
<feGaussianBlur stdDeviation="2"/>
<feComposite in2="hardAlpha" operator="out"/>
<feColorMatrix type="matrix" values="0 0 0 0 0 0 0 0 0 0 0 0 0 0 0 0 0 0 0.25 0"/>
<feBlend mode="normal" in2="BackgroundImageFix" result="effect1_dropShadow_1_5"/>
<feBlend mode="normal" in="SourceGraphic" in2="effect1_dropShadow_1_5" result="shape"/>
</filter>
<filter id="filter1_d_1_5" x="74.633" y="6.633" width="815.194" height="907.561" filterUnits="userSpaceOnUse" color-interpolation-filters="sRGB">
<feFlood flood-opacity="0" result="BackgroundImageFix"/>
<feColorMatrix in="SourceAlpha" type="matrix" values="0 0 0 0 0 0 0 0 0 0 0 0 0 0 0 0 0 0 127 0" result="hardAlpha"/>
<feOffset dy="4"/>
<feGaussianBlur stdDeviation="2"/>
<feComposite in2="hardAlpha" operator="out"/>
<feColorMatrix type="matrix" values="0 0 0 0 0 0 0 0 0 0 0 0 0 0 0 0 0 0 0.25 0"/>
<feBlend mode="normal" in2="BackgroundImageFix" result="effect1_dropShadow_1_5"/>
<feBlend mode="normal" in="SourceGraphic" in2="effect1_dropShadow_1_5" result="shape"/>
</filter>
</defs>
</svg>
